<mxfile host="Electron" modified="2024-05-07T17:19:46.438Z" agent="Mozilla/5.0 (Windows NT 10.0; Win64; x64) AppleWebKit/537.36 (KHTML, like Gecko) draw.io/24.2.5 Chrome/120.0.6099.109 Electron/28.1.0 Safari/537.36" etag="NVPHQMIJVukmXS7TWRiY" version="24.2.5" type="device">
  <diagram name="PÃ¡gina-1" id="4K2-rd4k7Rr1VKm1dHbr">
    <mxGraphModel dx="1591" dy="949" grid="1" gridSize="2" guides="1" tooltips="1" connect="1" arrows="1" fold="1" page="1" pageScale="1" pageWidth="1169" pageHeight="827" math="0" shadow="0">
      <root>
        <mxCell id="0" />
        <mxCell id="1" parent="0" />
        <mxCell id="3ZfSeAlEe4BIZ90gKN0m-14" style="edgeStyle=orthogonalEdgeStyle;rounded=0;orthogonalLoop=1;jettySize=auto;html=1;endArrow=open;endFill=0;startArrow=diamond;startFill=0;targetPerimeterSpacing=1;sourcePerimeterSpacing=1;startSize=29;endSize=10;strokeColor=#000000;strokeWidth=1;" parent="1" source="3ZfSeAlEe4BIZ90gKN0m-1" target="3ZfSeAlEe4BIZ90gKN0m-5" edge="1">
          <mxGeometry relative="1" as="geometry" />
        </mxCell>
        <mxCell id="3ZfSeAlEe4BIZ90gKN0m-1" value="&lt;b&gt;GildedRose&lt;br&gt;&lt;font color=&quot;#1f8f00&quot;&gt;C&lt;/font&gt;&lt;br&gt;&lt;/b&gt;" style="rounded=1;whiteSpace=wrap;html=1;" parent="1" vertex="1">
          <mxGeometry x="448" y="40" width="200" height="50" as="geometry" />
        </mxCell>
        <mxCell id="3ZfSeAlEe4BIZ90gKN0m-57" style="rounded=0;orthogonalLoop=1;jettySize=auto;html=1;dashed=1;endArrow=blockThin;endFill=0;strokeWidth=1;dashPattern=8 8;endSize=17;entryX=0;entryY=1;entryDx=0;entryDy=0;" parent="1" source="3ZfSeAlEe4BIZ90gKN0m-6" target="3ZfSeAlEe4BIZ90gKN0m-13" edge="1">
          <mxGeometry relative="1" as="geometry" />
        </mxCell>
        <mxCell id="3ZfSeAlEe4BIZ90gKN0m-6" value="&lt;b&gt;NormalItem&lt;br&gt;&lt;font color=&quot;#1f8f00&quot;&gt;C&lt;/font&gt;&lt;br&gt;&lt;/b&gt;" style="rounded=1;whiteSpace=wrap;html=1;" parent="1" vertex="1">
          <mxGeometry x="28" y="350" width="195" height="50" as="geometry" />
        </mxCell>
        <mxCell id="3ZfSeAlEe4BIZ90gKN0m-7" value="&lt;b&gt;AgedBrie&lt;br&gt;&lt;font color=&quot;#1f8f00&quot;&gt;C&lt;/font&gt;&lt;br&gt;&lt;/b&gt;" style="rounded=1;whiteSpace=wrap;html=1;" parent="1" vertex="1">
          <mxGeometry x="263" y="350" width="195" height="50" as="geometry" />
        </mxCell>
        <mxCell id="3ZfSeAlEe4BIZ90gKN0m-8" value="&lt;b&gt;BackstagePass&lt;br&gt;&lt;font color=&quot;#1f8f00&quot;&gt;C&lt;/font&gt;&lt;br&gt;&lt;/b&gt;" style="rounded=1;whiteSpace=wrap;html=1;" parent="1" vertex="1">
          <mxGeometry x="483" y="350" width="215" height="50" as="geometry" />
        </mxCell>
        <mxCell id="3ZfSeAlEe4BIZ90gKN0m-9" value="&lt;b&gt;Sulfuras&lt;br&gt;&lt;font color=&quot;#1f8f00&quot;&gt;C&lt;/font&gt;&lt;br&gt;&lt;/b&gt;" style="rounded=1;whiteSpace=wrap;html=1;" parent="1" vertex="1">
          <mxGeometry x="728" y="350" width="195" height="50" as="geometry" />
        </mxCell>
        <mxCell id="3ZfSeAlEe4BIZ90gKN0m-10" value="&lt;b&gt;Conjured&lt;br&gt;&lt;font color=&quot;#1f8f00&quot;&gt;C&lt;/font&gt;&lt;br&gt;&lt;/b&gt;" style="rounded=1;whiteSpace=wrap;html=1;" parent="1" vertex="1">
          <mxGeometry x="958" y="350" width="195" height="50" as="geometry" />
        </mxCell>
        <mxCell id="3ZfSeAlEe4BIZ90gKN0m-13" value="&lt;div&gt;&lt;font face=&quot;Lucida Console&quot;&gt;getSellIn(): int&lt;/font&gt;&lt;/div&gt;&lt;div&gt;&lt;font face=&quot;Lucida Console&quot;&gt;setSellIn(): void&lt;/font&gt;&lt;/div&gt;&lt;div&gt;&lt;font face=&quot;Lucida Console&quot;&gt;getQuality(): int&lt;/font&gt;&lt;/div&gt;&lt;div&gt;&lt;font face=&quot;Lucida Console&quot;&gt;setQuality():void&lt;/font&gt;&lt;/div&gt;&lt;div&gt;&lt;span style=&quot;font-family: &amp;quot;Lucida Console&amp;quot;;&quot;&gt;updateQuality(): void&lt;/span&gt;&lt;font face=&quot;Lucida Console&quot;&gt;&lt;br&gt;&lt;/font&gt;&lt;/div&gt;&lt;font face=&quot;Lucida Console&quot;&gt;&lt;div&gt;&lt;font face=&quot;Lucida Console&quot;&gt;&lt;br&gt;&lt;/font&gt;&lt;/div&gt;default updateItem(): void&lt;br&gt;default updateSellIn(): void&lt;br&gt;default correctQuality(): void&lt;/font&gt;" style="rounded=0;whiteSpace=wrap;html=1;align=left;" parent="1" vertex="1">
          <mxGeometry x="792" y="90" width="255" height="175" as="geometry" />
        </mxCell>
        <mxCell id="3ZfSeAlEe4BIZ90gKN0m-16" value="" style="ellipse;whiteSpace=wrap;html=1;strokeColor=none;fillColor=#33FF33;" parent="1" vertex="1">
          <mxGeometry x="772" y="115" width="10" height="10" as="geometry" />
        </mxCell>
        <mxCell id="3ZfSeAlEe4BIZ90gKN0m-17" value="" style="ellipse;whiteSpace=wrap;html=1;strokeColor=none;fillColor=#33FF33;" parent="1" vertex="1">
          <mxGeometry x="772" y="130" width="10" height="10" as="geometry" />
        </mxCell>
        <mxCell id="3ZfSeAlEe4BIZ90gKN0m-18" value="" style="ellipse;whiteSpace=wrap;html=1;strokeColor=none;fillColor=#33FF33;" parent="1" vertex="1">
          <mxGeometry x="772" y="145" width="10" height="10" as="geometry" />
        </mxCell>
        <mxCell id="3ZfSeAlEe4BIZ90gKN0m-22" value="" style="ellipse;whiteSpace=wrap;html=1;strokeColor=none;fillColor=#33FF33;" parent="1" vertex="1">
          <mxGeometry x="8" y="438" width="10" height="10" as="geometry" />
        </mxCell>
        <mxCell id="3ZfSeAlEe4BIZ90gKN0m-68" style="edgeStyle=orthogonalEdgeStyle;rounded=0;orthogonalLoop=1;jettySize=auto;html=1;entryX=0;entryY=0.479;entryDx=0;entryDy=0;endArrow=open;endFill=0;strokeWidth=1;endSize=12;entryPerimeter=0;" parent="1" source="3ZfSeAlEe4BIZ90gKN0m-25" target="3ZfSeAlEe4BIZ90gKN0m-62" edge="1">
          <mxGeometry relative="1" as="geometry">
            <Array as="points">
              <mxPoint x="135" y="674" />
            </Array>
          </mxGeometry>
        </mxCell>
        <mxCell id="3ZfSeAlEe4BIZ90gKN0m-25" value="&lt;font face=&quot;Lucida Console&quot;&gt;NormalItem(String,int,int)&lt;br&gt;updateQuality(): void&lt;br&gt;&lt;/font&gt;&lt;div&gt;&lt;font face=&quot;Lucida Console&quot;&gt;getName(): String&lt;/font&gt;&lt;/div&gt;&lt;div&gt;&lt;font face=&quot;Lucida Console&quot;&gt;setName(): void&lt;/font&gt;&lt;/div&gt;&lt;div&gt;&lt;div&gt;&lt;font face=&quot;Lucida Console&quot;&gt;getSellIn(): int&lt;/font&gt;&lt;/div&gt;&lt;div&gt;&lt;font face=&quot;Lucida Console&quot;&gt;setSellIn(): void&lt;/font&gt;&lt;/div&gt;&lt;div&gt;&lt;font face=&quot;Lucida Console&quot;&gt;getQuality(): int&lt;/font&gt;&lt;/div&gt;&lt;div&gt;&lt;font face=&quot;Lucida Console&quot;&gt;setQuality():void&lt;/font&gt;&lt;/div&gt;&lt;/div&gt;&lt;div&gt;&lt;font face=&quot;Lucida Console&quot;&gt;toString: String&lt;/font&gt;&lt;/div&gt;" style="rounded=0;whiteSpace=wrap;html=1;align=left;" parent="1" vertex="1">
          <mxGeometry x="28" y="430" width="195" height="150" as="geometry" />
        </mxCell>
        <mxCell id="3ZfSeAlEe4BIZ90gKN0m-28" value="" style="ellipse;whiteSpace=wrap;html=1;strokeColor=none;fillColor=#FF3333;" parent="1" vertex="1">
          <mxGeometry x="8" y="410" width="10" height="10" as="geometry" />
        </mxCell>
        <mxCell id="3ZfSeAlEe4BIZ90gKN0m-31" value="&lt;font face=&quot;Lucida Console&quot;&gt;Item item&lt;br&gt;&lt;/font&gt;" style="rounded=0;whiteSpace=wrap;html=1;align=left;" parent="1" vertex="1">
          <mxGeometry x="28" y="400" width="195" height="30" as="geometry" />
        </mxCell>
        <mxCell id="3ZfSeAlEe4BIZ90gKN0m-69" style="edgeStyle=orthogonalEdgeStyle;rounded=0;orthogonalLoop=1;jettySize=auto;html=1;strokeColor=default;strokeWidth=1;align=center;verticalAlign=middle;fontFamily=Helvetica;fontSize=11;fontColor=default;labelBackgroundColor=default;endArrow=open;endFill=0;endSize=12;" parent="1" target="3ZfSeAlEe4BIZ90gKN0m-62" edge="1" source="pLIlAjg6kyFc6lK5xPrL-22">
          <mxGeometry relative="1" as="geometry">
            <Array as="points">
              <mxPoint x="368" y="614" />
              <mxPoint x="530" y="614" />
            </Array>
            <mxPoint x="365" y="470" as="sourcePoint" />
          </mxGeometry>
        </mxCell>
        <mxCell id="3ZfSeAlEe4BIZ90gKN0m-37" value="" style="ellipse;whiteSpace=wrap;html=1;strokeColor=none;fillColor=#FF3333;" parent="1" vertex="1">
          <mxGeometry x="243" y="410" width="10" height="10" as="geometry" />
        </mxCell>
        <mxCell id="3ZfSeAlEe4BIZ90gKN0m-38" value="&lt;font face=&quot;Lucida Console&quot;&gt;Item item&lt;br&gt;&lt;/font&gt;" style="rounded=0;whiteSpace=wrap;html=1;align=left;" parent="1" vertex="1">
          <mxGeometry x="263" y="400" width="195" height="30" as="geometry" />
        </mxCell>
        <mxCell id="3ZfSeAlEe4BIZ90gKN0m-70" style="edgeStyle=orthogonalEdgeStyle;rounded=0;orthogonalLoop=1;jettySize=auto;html=1;strokeColor=default;strokeWidth=1;align=center;verticalAlign=middle;fontFamily=Helvetica;fontSize=11;fontColor=default;labelBackgroundColor=default;endArrow=open;endFill=0;endSize=12;" parent="1" target="3ZfSeAlEe4BIZ90gKN0m-62" edge="1" source="pLIlAjg6kyFc6lK5xPrL-23">
          <mxGeometry relative="1" as="geometry">
            <mxPoint x="585" y="470" as="sourcePoint" />
            <Array as="points">
              <mxPoint x="585" y="594" />
              <mxPoint x="585" y="594" />
            </Array>
          </mxGeometry>
        </mxCell>
        <mxCell id="3ZfSeAlEe4BIZ90gKN0m-43" value="" style="ellipse;whiteSpace=wrap;html=1;strokeColor=none;fillColor=#FF3333;" parent="1" vertex="1">
          <mxGeometry x="468" y="410" width="10" height="10" as="geometry" />
        </mxCell>
        <mxCell id="3ZfSeAlEe4BIZ90gKN0m-44" value="&lt;font face=&quot;Lucida Console&quot;&gt;Item item&lt;br&gt;&lt;/font&gt;" style="rounded=0;whiteSpace=wrap;html=1;align=left;" parent="1" vertex="1">
          <mxGeometry x="483" y="400" width="215" height="30" as="geometry" />
        </mxCell>
        <mxCell id="3ZfSeAlEe4BIZ90gKN0m-71" style="edgeStyle=orthogonalEdgeStyle;rounded=0;orthogonalLoop=1;jettySize=auto;html=1;strokeColor=default;strokeWidth=1;align=center;verticalAlign=middle;fontFamily=Helvetica;fontSize=11;fontColor=default;labelBackgroundColor=default;endArrow=open;endFill=0;endSize=12;" parent="1" target="3ZfSeAlEe4BIZ90gKN0m-62" edge="1" source="pLIlAjg6kyFc6lK5xPrL-25">
          <mxGeometry relative="1" as="geometry">
            <Array as="points">
              <mxPoint x="805" y="614" />
              <mxPoint x="640" y="614" />
            </Array>
            <mxPoint x="805" y="470" as="sourcePoint" />
          </mxGeometry>
        </mxCell>
        <mxCell id="3ZfSeAlEe4BIZ90gKN0m-49" value="" style="ellipse;whiteSpace=wrap;html=1;strokeColor=none;fillColor=#FF3333;" parent="1" vertex="1">
          <mxGeometry x="713" y="410" width="10" height="10" as="geometry" />
        </mxCell>
        <mxCell id="3ZfSeAlEe4BIZ90gKN0m-50" value="&lt;font face=&quot;Lucida Console&quot;&gt;Item item&lt;br&gt;&lt;/font&gt;" style="rounded=0;whiteSpace=wrap;html=1;align=left;" parent="1" vertex="1">
          <mxGeometry x="728" y="400" width="195" height="30" as="geometry" />
        </mxCell>
        <mxCell id="3ZfSeAlEe4BIZ90gKN0m-72" style="edgeStyle=orthogonalEdgeStyle;rounded=0;orthogonalLoop=1;jettySize=auto;html=1;strokeColor=default;strokeWidth=1;align=center;verticalAlign=middle;fontFamily=Helvetica;fontSize=11;fontColor=default;labelBackgroundColor=default;endArrow=open;endFill=0;endSize=12;" parent="1" target="3ZfSeAlEe4BIZ90gKN0m-62" edge="1" source="pLIlAjg6kyFc6lK5xPrL-26">
          <mxGeometry relative="1" as="geometry">
            <Array as="points">
              <mxPoint x="1025" y="674" />
            </Array>
            <mxPoint x="1025" y="470" as="sourcePoint" />
          </mxGeometry>
        </mxCell>
        <mxCell id="3ZfSeAlEe4BIZ90gKN0m-55" value="" style="ellipse;whiteSpace=wrap;html=1;strokeColor=none;fillColor=#FF3333;" parent="1" vertex="1">
          <mxGeometry x="943" y="409" width="10" height="10" as="geometry" />
        </mxCell>
        <mxCell id="3ZfSeAlEe4BIZ90gKN0m-56" value="&lt;font face=&quot;Lucida Console&quot;&gt;Item item&lt;br&gt;&lt;/font&gt;" style="rounded=0;whiteSpace=wrap;html=1;align=left;" parent="1" vertex="1">
          <mxGeometry x="958" y="400" width="195" height="30" as="geometry" />
        </mxCell>
        <mxCell id="3ZfSeAlEe4BIZ90gKN0m-58" style="rounded=0;orthogonalLoop=1;jettySize=auto;html=1;dashed=1;endArrow=blockThin;endFill=0;strokeWidth=1;dashPattern=8 8;endSize=17;entryX=0.25;entryY=1;entryDx=0;entryDy=0;" parent="1" source="3ZfSeAlEe4BIZ90gKN0m-7" target="3ZfSeAlEe4BIZ90gKN0m-13" edge="1">
          <mxGeometry relative="1" as="geometry">
            <mxPoint x="360" y="350" as="sourcePoint" />
            <mxPoint x="670" y="210" as="targetPoint" />
          </mxGeometry>
        </mxCell>
        <mxCell id="3ZfSeAlEe4BIZ90gKN0m-59" style="rounded=0;orthogonalLoop=1;jettySize=auto;html=1;dashed=1;endArrow=blockThin;endFill=0;strokeWidth=1;dashPattern=8 8;endSize=17;entryX=0.5;entryY=1;entryDx=0;entryDy=0;" parent="1" source="3ZfSeAlEe4BIZ90gKN0m-8" target="3ZfSeAlEe4BIZ90gKN0m-13" edge="1">
          <mxGeometry relative="1" as="geometry">
            <mxPoint x="690" y="300" as="sourcePoint" />
            <mxPoint x="1000" y="160" as="targetPoint" />
          </mxGeometry>
        </mxCell>
        <mxCell id="3ZfSeAlEe4BIZ90gKN0m-60" style="rounded=0;orthogonalLoop=1;jettySize=auto;html=1;dashed=1;endArrow=blockThin;endFill=0;strokeWidth=1;dashPattern=8 8;endSize=17;entryX=0.75;entryY=1;entryDx=0;entryDy=0;" parent="1" source="3ZfSeAlEe4BIZ90gKN0m-9" target="3ZfSeAlEe4BIZ90gKN0m-13" edge="1">
          <mxGeometry relative="1" as="geometry">
            <mxPoint x="800" y="310" as="sourcePoint" />
            <mxPoint x="1110" y="170" as="targetPoint" />
          </mxGeometry>
        </mxCell>
        <mxCell id="3ZfSeAlEe4BIZ90gKN0m-61" style="rounded=0;orthogonalLoop=1;jettySize=auto;html=1;dashed=1;endArrow=blockThin;endFill=0;strokeWidth=1;dashPattern=8 8;endSize=17;entryX=1;entryY=1;entryDx=0;entryDy=0;" parent="1" source="3ZfSeAlEe4BIZ90gKN0m-10" target="3ZfSeAlEe4BIZ90gKN0m-13" edge="1">
          <mxGeometry relative="1" as="geometry">
            <mxPoint x="790" y="260" as="sourcePoint" />
            <mxPoint x="1100" y="120" as="targetPoint" />
          </mxGeometry>
        </mxCell>
        <mxCell id="3ZfSeAlEe4BIZ90gKN0m-62" value="&lt;b&gt;Item&lt;br&gt;&lt;font color=&quot;#1f8f00&quot;&gt;C&lt;/font&gt;&lt;br&gt;&lt;/b&gt;" style="rounded=1;whiteSpace=wrap;html=1;" parent="1" vertex="1">
          <mxGeometry x="500" y="650" width="170" height="50" as="geometry" />
        </mxCell>
        <mxCell id="3ZfSeAlEe4BIZ90gKN0m-63" value="&lt;font face=&quot;Lucida Console&quot;&gt;String name&lt;br&gt;int sellIn&lt;br&gt;int quality&lt;br&gt;&lt;/font&gt;" style="rounded=0;whiteSpace=wrap;html=1;align=left;" parent="1" vertex="1">
          <mxGeometry x="500" y="700" width="170" height="60" as="geometry" />
        </mxCell>
        <mxCell id="3ZfSeAlEe4BIZ90gKN0m-65" value="" style="ellipse;whiteSpace=wrap;html=1;strokeColor=none;fillColor=#3399FF;" parent="1" vertex="1">
          <mxGeometry x="480" y="710" width="10" height="10" as="geometry" />
        </mxCell>
        <mxCell id="3ZfSeAlEe4BIZ90gKN0m-66" value="" style="ellipse;whiteSpace=wrap;html=1;strokeColor=none;fillColor=#3399FF;" parent="1" vertex="1">
          <mxGeometry x="480" y="725" width="10" height="10" as="geometry" />
        </mxCell>
        <mxCell id="3ZfSeAlEe4BIZ90gKN0m-67" value="" style="ellipse;whiteSpace=wrap;html=1;strokeColor=none;fillColor=#3399FF;" parent="1" vertex="1">
          <mxGeometry x="480" y="740" width="10" height="10" as="geometry" />
        </mxCell>
        <mxCell id="3ZfSeAlEe4BIZ90gKN0m-73" value="&lt;font face=&quot;Lucida Console&quot;&gt;List&amp;lt;Updateable&amp;gt; items&amp;nbsp;&lt;br&gt;&lt;/font&gt;" style="rounded=0;whiteSpace=wrap;html=1;align=left;" parent="1" vertex="1">
          <mxGeometry x="448" y="90" width="200" height="30" as="geometry" />
        </mxCell>
        <mxCell id="3ZfSeAlEe4BIZ90gKN0m-74" value="&lt;div&gt;&lt;span style=&quot;font-family: &amp;quot;Lucida Console&amp;quot;; background-color: initial;&quot;&gt;addItem(Updateable): void&lt;/span&gt;&lt;/div&gt;&lt;div&gt;&lt;span style=&quot;font-family: &amp;quot;Lucida Console&amp;quot;; background-color: initial;&quot;&gt;getSize(): int&lt;/span&gt;&lt;/div&gt;&lt;div&gt;&lt;span style=&quot;font-family: &amp;quot;Lucida Console&amp;quot;; background-color: initial;&quot;&gt;getItem(int): Updateable&lt;/span&gt;&lt;/div&gt;&lt;div&gt;&lt;span style=&quot;font-family: &amp;quot;Lucida Console&amp;quot;; background-color: initial;&quot;&gt;updateItems(): void&lt;/span&gt;&lt;br&gt;&lt;/div&gt;&lt;div&gt;&lt;span style=&quot;font-family: &amp;quot;Lucida Console&amp;quot;; background-color: initial;&quot;&gt;toString: String&lt;/span&gt;&lt;/div&gt;&lt;div&gt;&lt;font face=&quot;Lucida Console&quot;&gt;&lt;br&gt;&lt;/font&gt;&lt;/div&gt;" style="rounded=0;whiteSpace=wrap;html=1;align=left;" parent="1" vertex="1">
          <mxGeometry x="448" y="120" width="200" height="115" as="geometry" />
        </mxCell>
        <mxCell id="3ZfSeAlEe4BIZ90gKN0m-75" value="" style="ellipse;whiteSpace=wrap;html=1;strokeColor=none;fillColor=#FF3333;" parent="1" vertex="1">
          <mxGeometry x="428" y="100" width="10" height="10" as="geometry" />
        </mxCell>
        <mxCell id="3ZfSeAlEe4BIZ90gKN0m-5" value="&lt;b&gt;Updateable&lt;br&gt;&lt;font color=&quot;#007fff&quot;&gt;I&lt;/font&gt;&lt;br&gt;&lt;/b&gt;" style="rounded=1;whiteSpace=wrap;html=1;strokeColor=#3399FF;strokeWidth=2;" parent="1" vertex="1">
          <mxGeometry x="792" y="40" width="255" height="50" as="geometry" />
        </mxCell>
        <mxCell id="3ZfSeAlEe4BIZ90gKN0m-76" value="" style="ellipse;whiteSpace=wrap;html=1;strokeColor=none;fillColor=#33FF33;" parent="1" vertex="1">
          <mxGeometry x="428" y="135" width="10" height="10" as="geometry" />
        </mxCell>
        <mxCell id="pLIlAjg6kyFc6lK5xPrL-21" value="" style="ellipse;whiteSpace=wrap;html=1;strokeColor=none;fillColor=#33FF33;" parent="1" vertex="1">
          <mxGeometry x="8" y="455" width="10" height="10" as="geometry" />
        </mxCell>
        <mxCell id="pLIlAjg6kyFc6lK5xPrL-22" value="&lt;font face=&quot;Lucida Console&quot;&gt;AgedBrie(String,int,int)&lt;br&gt;updateQuality(): void&lt;br&gt;&lt;/font&gt;&lt;div&gt;&lt;font face=&quot;Lucida Console&quot;&gt;getName(): String&lt;/font&gt;&lt;/div&gt;&lt;div&gt;&lt;font face=&quot;Lucida Console&quot;&gt;setName(): void&lt;/font&gt;&lt;/div&gt;&lt;div&gt;&lt;div&gt;&lt;font face=&quot;Lucida Console&quot;&gt;getSellIn(): int&lt;/font&gt;&lt;/div&gt;&lt;div&gt;&lt;font face=&quot;Lucida Console&quot;&gt;setSellIn(): void&lt;/font&gt;&lt;/div&gt;&lt;div&gt;&lt;font face=&quot;Lucida Console&quot;&gt;getQuality(): int&lt;/font&gt;&lt;/div&gt;&lt;div&gt;&lt;font face=&quot;Lucida Console&quot;&gt;setQuality():void&lt;/font&gt;&lt;/div&gt;&lt;/div&gt;&lt;div&gt;&lt;font face=&quot;Lucida Console&quot;&gt;toString: String&lt;/font&gt;&lt;/div&gt;" style="rounded=0;whiteSpace=wrap;html=1;align=left;" parent="1" vertex="1">
          <mxGeometry x="263" y="430" width="195" height="148" as="geometry" />
        </mxCell>
        <mxCell id="pLIlAjg6kyFc6lK5xPrL-23" value="&lt;font face=&quot;Lucida Console&quot;&gt;BackstagePass(String,int,int)&lt;/font&gt;&lt;font face=&quot;Lucida Console&quot;&gt;&lt;br&gt;updateQuality(): void&lt;br&gt;&lt;/font&gt;&lt;div&gt;&lt;font face=&quot;Lucida Console&quot;&gt;getName(): String&lt;/font&gt;&lt;/div&gt;&lt;div&gt;&lt;font face=&quot;Lucida Console&quot;&gt;setName(): void&lt;/font&gt;&lt;/div&gt;&lt;div&gt;&lt;div&gt;&lt;font face=&quot;Lucida Console&quot;&gt;getSellIn(): int&lt;/font&gt;&lt;/div&gt;&lt;div&gt;&lt;font face=&quot;Lucida Console&quot;&gt;setSellIn(): void&lt;/font&gt;&lt;/div&gt;&lt;div&gt;&lt;font face=&quot;Lucida Console&quot;&gt;getQuality(): int&lt;/font&gt;&lt;/div&gt;&lt;div&gt;&lt;font face=&quot;Lucida Console&quot;&gt;setQuality():void&lt;/font&gt;&lt;/div&gt;&lt;/div&gt;&lt;div&gt;&lt;font face=&quot;Lucida Console&quot;&gt;toString: String&lt;/font&gt;&lt;/div&gt;" style="rounded=0;whiteSpace=wrap;html=1;align=left;" parent="1" vertex="1">
          <mxGeometry x="483" y="430" width="215" height="148" as="geometry" />
        </mxCell>
        <mxCell id="pLIlAjg6kyFc6lK5xPrL-25" value="&lt;font face=&quot;Lucida Console&quot;&gt;Sulfuras(String,int,int)&lt;/font&gt;&lt;font face=&quot;Lucida Console&quot;&gt;&lt;br&gt;updateQuality(): void&lt;br&gt;&lt;/font&gt;&lt;div&gt;&lt;font face=&quot;Lucida Console&quot;&gt;getName(): String&lt;/font&gt;&lt;/div&gt;&lt;div&gt;&lt;font face=&quot;Lucida Console&quot;&gt;setName(): void&lt;/font&gt;&lt;/div&gt;&lt;div&gt;&lt;div&gt;&lt;font face=&quot;Lucida Console&quot;&gt;getSellIn(): int&lt;/font&gt;&lt;/div&gt;&lt;div&gt;&lt;font face=&quot;Lucida Console&quot;&gt;setSellIn(): void&lt;/font&gt;&lt;/div&gt;&lt;div&gt;&lt;font face=&quot;Lucida Console&quot;&gt;getQuality(): int&lt;/font&gt;&lt;/div&gt;&lt;div&gt;&lt;font face=&quot;Lucida Console&quot;&gt;setQuality():void&lt;/font&gt;&lt;/div&gt;&lt;/div&gt;&lt;div&gt;&lt;font face=&quot;Lucida Console&quot;&gt;toString: String&lt;/font&gt;&lt;/div&gt;" style="rounded=0;whiteSpace=wrap;html=1;align=left;" parent="1" vertex="1">
          <mxGeometry x="728" y="430" width="195" height="146" as="geometry" />
        </mxCell>
        <mxCell id="pLIlAjg6kyFc6lK5xPrL-26" value="&lt;font face=&quot;Lucida Console&quot;&gt;Conjured(String,int,int)&lt;/font&gt;&lt;font face=&quot;Lucida Console&quot;&gt;&lt;br&gt;updateQuality(): void&lt;br&gt;&lt;/font&gt;&lt;div&gt;&lt;font face=&quot;Lucida Console&quot;&gt;getName(): String&lt;/font&gt;&lt;/div&gt;&lt;div&gt;&lt;font face=&quot;Lucida Console&quot;&gt;setName(): void&lt;/font&gt;&lt;/div&gt;&lt;div&gt;&lt;div&gt;&lt;font face=&quot;Lucida Console&quot;&gt;getSellIn(): int&lt;/font&gt;&lt;/div&gt;&lt;div&gt;&lt;font face=&quot;Lucida Console&quot;&gt;setSellIn(): void&lt;/font&gt;&lt;/div&gt;&lt;div&gt;&lt;font face=&quot;Lucida Console&quot;&gt;getQuality(): int&lt;/font&gt;&lt;/div&gt;&lt;div&gt;&lt;font face=&quot;Lucida Console&quot;&gt;setQuality():void&lt;/font&gt;&lt;/div&gt;&lt;/div&gt;&lt;div&gt;&lt;font face=&quot;Lucida Console&quot;&gt;toString: String&lt;/font&gt;&lt;/div&gt;" style="rounded=0;whiteSpace=wrap;html=1;align=left;" parent="1" vertex="1">
          <mxGeometry x="958" y="425" width="195" height="151" as="geometry" />
        </mxCell>
        <mxCell id="pLIlAjg6kyFc6lK5xPrL-37" value="&lt;font face=&quot;Lucida Console&quot;&gt;Item(String,int,int)&lt;br&gt;&lt;/font&gt;" style="rounded=0;whiteSpace=wrap;html=1;align=left;" parent="1" vertex="1">
          <mxGeometry x="500" y="760" width="170" height="35" as="geometry" />
        </mxCell>
        <mxCell id="pLIlAjg6kyFc6lK5xPrL-38" value="" style="ellipse;whiteSpace=wrap;html=1;strokeColor=none;fillColor=#33FF33;" parent="1" vertex="1">
          <mxGeometry x="480" y="772.5" width="10" height="10" as="geometry" />
        </mxCell>
        <mxCell id="Me0IpnnX630auwv4CNTX-2" value="" style="ellipse;whiteSpace=wrap;html=1;strokeColor=none;fillColor=#33FF33;" vertex="1" parent="1">
          <mxGeometry x="772" y="160" width="10" height="10" as="geometry" />
        </mxCell>
        <mxCell id="Me0IpnnX630auwv4CNTX-3" value="" style="ellipse;whiteSpace=wrap;html=1;strokeColor=none;fillColor=#33FF33;" vertex="1" parent="1">
          <mxGeometry x="772" y="172.5" width="10" height="10" as="geometry" />
        </mxCell>
        <mxCell id="Me0IpnnX630auwv4CNTX-4" value="" style="ellipse;whiteSpace=wrap;html=1;strokeColor=none;fillColor=#33FF33;" vertex="1" parent="1">
          <mxGeometry x="772" y="205" width="10" height="10" as="geometry" />
        </mxCell>
        <mxCell id="Me0IpnnX630auwv4CNTX-5" value="" style="ellipse;whiteSpace=wrap;html=1;strokeColor=none;fillColor=#33FF33;" vertex="1" parent="1">
          <mxGeometry x="772" y="220" width="10" height="10" as="geometry" />
        </mxCell>
        <mxCell id="Me0IpnnX630auwv4CNTX-6" value="" style="ellipse;whiteSpace=wrap;html=1;strokeColor=none;fillColor=#33FF33;" vertex="1" parent="1">
          <mxGeometry x="772" y="235" width="10" height="10" as="geometry" />
        </mxCell>
        <mxCell id="Me0IpnnX630auwv4CNTX-7" value="" style="ellipse;whiteSpace=wrap;html=1;strokeColor=none;fillColor=#33FF33;" vertex="1" parent="1">
          <mxGeometry x="428" y="150" width="10" height="10" as="geometry" />
        </mxCell>
        <mxCell id="Me0IpnnX630auwv4CNTX-9" value="" style="ellipse;whiteSpace=wrap;html=1;strokeColor=none;fillColor=#33FF33;" vertex="1" parent="1">
          <mxGeometry x="428" y="182.5" width="10" height="10" as="geometry" />
        </mxCell>
        <mxCell id="Me0IpnnX630auwv4CNTX-10" value="" style="ellipse;whiteSpace=wrap;html=1;strokeColor=none;fillColor=#33FF33;" vertex="1" parent="1">
          <mxGeometry x="428" y="198" width="10" height="10" as="geometry" />
        </mxCell>
        <mxCell id="Me0IpnnX630auwv4CNTX-11" value="" style="ellipse;whiteSpace=wrap;html=1;strokeColor=none;fillColor=#3399FF;" vertex="1" parent="1">
          <mxGeometry x="428" y="166" width="10" height="10" as="geometry" />
        </mxCell>
        <mxCell id="Me0IpnnX630auwv4CNTX-12" value="" style="ellipse;whiteSpace=wrap;html=1;strokeColor=none;fillColor=#33FF33;" vertex="1" parent="1">
          <mxGeometry x="8" y="470" width="10" height="10" as="geometry" />
        </mxCell>
        <mxCell id="Me0IpnnX630auwv4CNTX-13" value="" style="ellipse;whiteSpace=wrap;html=1;strokeColor=none;fillColor=#33FF33;" vertex="1" parent="1">
          <mxGeometry x="8" y="485" width="10" height="10" as="geometry" />
        </mxCell>
        <mxCell id="Me0IpnnX630auwv4CNTX-14" value="" style="ellipse;whiteSpace=wrap;html=1;strokeColor=none;fillColor=#33FF33;" vertex="1" parent="1">
          <mxGeometry x="8" y="500" width="10" height="10" as="geometry" />
        </mxCell>
        <mxCell id="Me0IpnnX630auwv4CNTX-15" value="" style="ellipse;whiteSpace=wrap;html=1;strokeColor=none;fillColor=#33FF33;" vertex="1" parent="1">
          <mxGeometry x="8" y="516" width="10" height="10" as="geometry" />
        </mxCell>
        <mxCell id="Me0IpnnX630auwv4CNTX-16" value="" style="ellipse;whiteSpace=wrap;html=1;strokeColor=none;fillColor=#33FF33;" vertex="1" parent="1">
          <mxGeometry x="8" y="532" width="10" height="10" as="geometry" />
        </mxCell>
        <mxCell id="Me0IpnnX630auwv4CNTX-17" value="" style="ellipse;whiteSpace=wrap;html=1;strokeColor=none;fillColor=#33FF33;" vertex="1" parent="1">
          <mxGeometry x="8" y="548" width="10" height="10" as="geometry" />
        </mxCell>
        <mxCell id="Me0IpnnX630auwv4CNTX-18" value="" style="ellipse;whiteSpace=wrap;html=1;strokeColor=none;fillColor=#33FF33;" vertex="1" parent="1">
          <mxGeometry x="8" y="562" width="10" height="10" as="geometry" />
        </mxCell>
        <mxCell id="Me0IpnnX630auwv4CNTX-19" value="" style="ellipse;whiteSpace=wrap;html=1;strokeColor=none;fillColor=#33FF33;" vertex="1" parent="1">
          <mxGeometry x="243" y="437" width="10" height="10" as="geometry" />
        </mxCell>
        <mxCell id="Me0IpnnX630auwv4CNTX-20" value="" style="ellipse;whiteSpace=wrap;html=1;strokeColor=none;fillColor=#33FF33;" vertex="1" parent="1">
          <mxGeometry x="243" y="454" width="10" height="10" as="geometry" />
        </mxCell>
        <mxCell id="Me0IpnnX630auwv4CNTX-21" value="" style="ellipse;whiteSpace=wrap;html=1;strokeColor=none;fillColor=#33FF33;" vertex="1" parent="1">
          <mxGeometry x="243" y="469" width="10" height="10" as="geometry" />
        </mxCell>
        <mxCell id="Me0IpnnX630auwv4CNTX-22" value="" style="ellipse;whiteSpace=wrap;html=1;strokeColor=none;fillColor=#33FF33;" vertex="1" parent="1">
          <mxGeometry x="243" y="484" width="10" height="10" as="geometry" />
        </mxCell>
        <mxCell id="Me0IpnnX630auwv4CNTX-23" value="" style="ellipse;whiteSpace=wrap;html=1;strokeColor=none;fillColor=#33FF33;" vertex="1" parent="1">
          <mxGeometry x="243" y="499" width="10" height="10" as="geometry" />
        </mxCell>
        <mxCell id="Me0IpnnX630auwv4CNTX-24" value="" style="ellipse;whiteSpace=wrap;html=1;strokeColor=none;fillColor=#33FF33;" vertex="1" parent="1">
          <mxGeometry x="243" y="515" width="10" height="10" as="geometry" />
        </mxCell>
        <mxCell id="Me0IpnnX630auwv4CNTX-25" value="" style="ellipse;whiteSpace=wrap;html=1;strokeColor=none;fillColor=#33FF33;" vertex="1" parent="1">
          <mxGeometry x="243" y="531" width="10" height="10" as="geometry" />
        </mxCell>
        <mxCell id="Me0IpnnX630auwv4CNTX-26" value="" style="ellipse;whiteSpace=wrap;html=1;strokeColor=none;fillColor=#33FF33;" vertex="1" parent="1">
          <mxGeometry x="243" y="547" width="10" height="10" as="geometry" />
        </mxCell>
        <mxCell id="Me0IpnnX630auwv4CNTX-27" value="" style="ellipse;whiteSpace=wrap;html=1;strokeColor=none;fillColor=#33FF33;" vertex="1" parent="1">
          <mxGeometry x="243" y="561" width="10" height="10" as="geometry" />
        </mxCell>
        <mxCell id="Me0IpnnX630auwv4CNTX-28" value="" style="ellipse;whiteSpace=wrap;html=1;strokeColor=none;fillColor=#33FF33;" vertex="1" parent="1">
          <mxGeometry x="468" y="437" width="10" height="10" as="geometry" />
        </mxCell>
        <mxCell id="Me0IpnnX630auwv4CNTX-29" value="" style="ellipse;whiteSpace=wrap;html=1;strokeColor=none;fillColor=#33FF33;" vertex="1" parent="1">
          <mxGeometry x="468" y="454" width="10" height="10" as="geometry" />
        </mxCell>
        <mxCell id="Me0IpnnX630auwv4CNTX-30" value="" style="ellipse;whiteSpace=wrap;html=1;strokeColor=none;fillColor=#33FF33;" vertex="1" parent="1">
          <mxGeometry x="468" y="469" width="10" height="10" as="geometry" />
        </mxCell>
        <mxCell id="Me0IpnnX630auwv4CNTX-31" value="" style="ellipse;whiteSpace=wrap;html=1;strokeColor=none;fillColor=#33FF33;" vertex="1" parent="1">
          <mxGeometry x="468" y="484" width="10" height="10" as="geometry" />
        </mxCell>
        <mxCell id="Me0IpnnX630auwv4CNTX-32" value="" style="ellipse;whiteSpace=wrap;html=1;strokeColor=none;fillColor=#33FF33;" vertex="1" parent="1">
          <mxGeometry x="468" y="499" width="10" height="10" as="geometry" />
        </mxCell>
        <mxCell id="Me0IpnnX630auwv4CNTX-33" value="" style="ellipse;whiteSpace=wrap;html=1;strokeColor=none;fillColor=#33FF33;" vertex="1" parent="1">
          <mxGeometry x="468" y="515" width="10" height="10" as="geometry" />
        </mxCell>
        <mxCell id="Me0IpnnX630auwv4CNTX-34" value="" style="ellipse;whiteSpace=wrap;html=1;strokeColor=none;fillColor=#33FF33;" vertex="1" parent="1">
          <mxGeometry x="468" y="531" width="10" height="10" as="geometry" />
        </mxCell>
        <mxCell id="Me0IpnnX630auwv4CNTX-35" value="" style="ellipse;whiteSpace=wrap;html=1;strokeColor=none;fillColor=#33FF33;" vertex="1" parent="1">
          <mxGeometry x="468" y="547" width="10" height="10" as="geometry" />
        </mxCell>
        <mxCell id="Me0IpnnX630auwv4CNTX-36" value="" style="ellipse;whiteSpace=wrap;html=1;strokeColor=none;fillColor=#33FF33;" vertex="1" parent="1">
          <mxGeometry x="468" y="561" width="10" height="10" as="geometry" />
        </mxCell>
        <mxCell id="Me0IpnnX630auwv4CNTX-37" value="" style="ellipse;whiteSpace=wrap;html=1;strokeColor=none;fillColor=#33FF33;" vertex="1" parent="1">
          <mxGeometry x="713" y="436" width="10" height="10" as="geometry" />
        </mxCell>
        <mxCell id="Me0IpnnX630auwv4CNTX-38" value="" style="ellipse;whiteSpace=wrap;html=1;strokeColor=none;fillColor=#33FF33;" vertex="1" parent="1">
          <mxGeometry x="713" y="453" width="10" height="10" as="geometry" />
        </mxCell>
        <mxCell id="Me0IpnnX630auwv4CNTX-39" value="" style="ellipse;whiteSpace=wrap;html=1;strokeColor=none;fillColor=#33FF33;" vertex="1" parent="1">
          <mxGeometry x="713" y="468" width="10" height="10" as="geometry" />
        </mxCell>
        <mxCell id="Me0IpnnX630auwv4CNTX-40" value="" style="ellipse;whiteSpace=wrap;html=1;strokeColor=none;fillColor=#33FF33;" vertex="1" parent="1">
          <mxGeometry x="713" y="483" width="10" height="10" as="geometry" />
        </mxCell>
        <mxCell id="Me0IpnnX630auwv4CNTX-41" value="" style="ellipse;whiteSpace=wrap;html=1;strokeColor=none;fillColor=#33FF33;" vertex="1" parent="1">
          <mxGeometry x="713" y="498" width="10" height="10" as="geometry" />
        </mxCell>
        <mxCell id="Me0IpnnX630auwv4CNTX-42" value="" style="ellipse;whiteSpace=wrap;html=1;strokeColor=none;fillColor=#33FF33;" vertex="1" parent="1">
          <mxGeometry x="713" y="514" width="10" height="10" as="geometry" />
        </mxCell>
        <mxCell id="Me0IpnnX630auwv4CNTX-43" value="" style="ellipse;whiteSpace=wrap;html=1;strokeColor=none;fillColor=#33FF33;" vertex="1" parent="1">
          <mxGeometry x="713" y="530" width="10" height="10" as="geometry" />
        </mxCell>
        <mxCell id="Me0IpnnX630auwv4CNTX-44" value="" style="ellipse;whiteSpace=wrap;html=1;strokeColor=none;fillColor=#33FF33;" vertex="1" parent="1">
          <mxGeometry x="713" y="546" width="10" height="10" as="geometry" />
        </mxCell>
        <mxCell id="Me0IpnnX630auwv4CNTX-45" value="" style="ellipse;whiteSpace=wrap;html=1;strokeColor=none;fillColor=#33FF33;" vertex="1" parent="1">
          <mxGeometry x="713" y="560" width="10" height="10" as="geometry" />
        </mxCell>
        <mxCell id="Me0IpnnX630auwv4CNTX-46" value="" style="ellipse;whiteSpace=wrap;html=1;strokeColor=none;fillColor=#33FF33;" vertex="1" parent="1">
          <mxGeometry x="943" y="433.5" width="10" height="10" as="geometry" />
        </mxCell>
        <mxCell id="Me0IpnnX630auwv4CNTX-47" value="" style="ellipse;whiteSpace=wrap;html=1;strokeColor=none;fillColor=#33FF33;" vertex="1" parent="1">
          <mxGeometry x="943" y="450.5" width="10" height="10" as="geometry" />
        </mxCell>
        <mxCell id="Me0IpnnX630auwv4CNTX-48" value="" style="ellipse;whiteSpace=wrap;html=1;strokeColor=none;fillColor=#33FF33;" vertex="1" parent="1">
          <mxGeometry x="943" y="465.5" width="10" height="10" as="geometry" />
        </mxCell>
        <mxCell id="Me0IpnnX630auwv4CNTX-49" value="" style="ellipse;whiteSpace=wrap;html=1;strokeColor=none;fillColor=#33FF33;" vertex="1" parent="1">
          <mxGeometry x="943" y="480.5" width="10" height="10" as="geometry" />
        </mxCell>
        <mxCell id="Me0IpnnX630auwv4CNTX-50" value="" style="ellipse;whiteSpace=wrap;html=1;strokeColor=none;fillColor=#33FF33;" vertex="1" parent="1">
          <mxGeometry x="943" y="495.5" width="10" height="10" as="geometry" />
        </mxCell>
        <mxCell id="Me0IpnnX630auwv4CNTX-51" value="" style="ellipse;whiteSpace=wrap;html=1;strokeColor=none;fillColor=#33FF33;" vertex="1" parent="1">
          <mxGeometry x="943" y="511.5" width="10" height="10" as="geometry" />
        </mxCell>
        <mxCell id="Me0IpnnX630auwv4CNTX-52" value="" style="ellipse;whiteSpace=wrap;html=1;strokeColor=none;fillColor=#33FF33;" vertex="1" parent="1">
          <mxGeometry x="943" y="527.5" width="10" height="10" as="geometry" />
        </mxCell>
        <mxCell id="Me0IpnnX630auwv4CNTX-53" value="" style="ellipse;whiteSpace=wrap;html=1;strokeColor=none;fillColor=#33FF33;" vertex="1" parent="1">
          <mxGeometry x="943" y="543.5" width="10" height="10" as="geometry" />
        </mxCell>
        <mxCell id="Me0IpnnX630auwv4CNTX-54" value="" style="ellipse;whiteSpace=wrap;html=1;strokeColor=none;fillColor=#33FF33;" vertex="1" parent="1">
          <mxGeometry x="943" y="557.5" width="10" height="10" as="geometry" />
        </mxCell>
        <mxCell id="Me0IpnnX630auwv4CNTX-57" value="&lt;b&gt;App&lt;br&gt;&lt;font color=&quot;#1f8f00&quot;&gt;C&lt;/font&gt;&lt;br&gt;&lt;/b&gt;" style="rounded=1;whiteSpace=wrap;html=1;" vertex="1" parent="1">
          <mxGeometry x="104" y="40" width="188" height="50" as="geometry" />
        </mxCell>
        <mxCell id="Me0IpnnX630auwv4CNTX-58" value="&lt;font face=&quot;Lucida Console&quot;&gt;&lt;br&gt;&lt;/font&gt;" style="rounded=0;whiteSpace=wrap;html=1;align=left;" vertex="1" parent="1">
          <mxGeometry x="104" y="90" width="188" height="18" as="geometry" />
        </mxCell>
        <mxCell id="Me0IpnnX630auwv4CNTX-62" style="edgeStyle=orthogonalEdgeStyle;rounded=0;orthogonalLoop=1;jettySize=auto;html=1;entryX=0;entryY=0.5;entryDx=0;entryDy=0;strokeColor=default;strokeWidth=1;align=center;verticalAlign=middle;fontFamily=Helvetica;fontSize=11;fontColor=default;labelBackgroundColor=default;endArrow=open;endFill=0;endSize=12;" edge="1" parent="1" source="Me0IpnnX630auwv4CNTX-59" target="3ZfSeAlEe4BIZ90gKN0m-1">
          <mxGeometry relative="1" as="geometry" />
        </mxCell>
        <mxCell id="Me0IpnnX630auwv4CNTX-59" value="&lt;div&gt;&lt;font face=&quot;Lucida Console&quot;&gt;App()&lt;/font&gt;&lt;/div&gt;&lt;div&gt;&lt;font face=&quot;Lucida Console&quot;&gt;main(String[]): void&lt;/font&gt;&lt;/div&gt;" style="rounded=0;whiteSpace=wrap;html=1;align=left;" vertex="1" parent="1">
          <mxGeometry x="104" y="108" width="188" height="48" as="geometry" />
        </mxCell>
        <mxCell id="Me0IpnnX630auwv4CNTX-60" value="" style="ellipse;whiteSpace=wrap;html=1;strokeColor=none;fillColor=#33FF33;" vertex="1" parent="1">
          <mxGeometry x="86" y="120" width="10" height="10" as="geometry" />
        </mxCell>
        <mxCell id="Me0IpnnX630auwv4CNTX-61" value="" style="ellipse;whiteSpace=wrap;html=1;strokeColor=none;fillColor=#33FF33;" vertex="1" parent="1">
          <mxGeometry x="86" y="135" width="10" height="10" as="geometry" />
        </mxCell>
      </root>
    </mxGraphModel>
  </diagram>
</mxfile>
